<?xml version="1.0" encoding="UTF-8"?>
<!-- Created with Inkscape (http://www.inkscape.org/) -->
<svg preserveAspectRatio="none" width="auto" height="auto" version="1.1" viewBox="0 0 100% 100%" xmlns="http://www.w3.org/2000/svg" xmlns:cc="http://creativecommons.org/ns#" xmlns:dc="http://purl.org/dc/elements/1.1/" xmlns:rdf="http://www.w3.org/1999/02/22-rdf-syntax-ns#" xmlns:xlink="http://www.w3.org/1999/xlink">
<defs>
<linearGradient id="linearGradient839" x1="-18.894" x2="234.83" y1="44.782" y2="235.01" gradientUnits="userSpaceOnUse">
<stop stop-color="#fff11a" offset="0"/>
<stop stop-color="#ffa500" offset="1"/>
</linearGradient>
</defs>
<metadata>
<rdf:RDF>
<cc:Work rdf:about="">
<dc:format>image/svg+xml</dc:format>
<dc:type rdf:resource="http://purl.org/dc/dcmitype/StillImage"/>
<dc:title/>
</cc:Work>
</rdf:RDF>
</metadata>
<rect x="0" y="0" width="100%" height="100%" fill="url(#linearGradient839)" fill-rule="evenodd" opacity=".99" stroke="#d9d9d9" stroke-width=".27497" style="paint-order:normal"/>
<g style="opacity:0.75">
	<g transform="scale(2)" width="100px" height="100px"><polygon  points="9.8273811,18.142859 -10.798486,17.582191 -20.625867,-0.5606676 -9.8273811,-18.142859 10.798486,-17.582191 20.625867,0.5606676" style="opacity:0.98999999;fill:none;fill-opacity:1;fill-rule:evenodd;stroke:#ee9c05;stroke-width:7.4267745;stroke-linecap:round;stroke-miterlimit:4;stroke-dasharray:none;stroke-opacity:1;paint-order:normal"/></g>
	<g transform="scale(2) translate(32,16)" width="100px" height="100px"><polygon  points="9.8273811,18.142859 -10.798486,17.582191 -20.625867,-0.5606676 -9.8273811,-18.142859 10.798486,-17.582191 20.625867,0.5606676" style="opacity:0.98999999;fill:none;fill-opacity:1;fill-rule:evenodd;stroke:#ee9c05;stroke-width:7.4267745;stroke-linecap:round;stroke-miterlimit:4;stroke-dasharray:none;stroke-opacity:1;paint-order:normal"/></g>
	<g transform="scale(2) translate(0,35)" width="100px" height="100px"><polygon  points="9.8273811,18.142859 -10.798486,17.582191 -20.625867,-0.5606676 -9.8273811,-18.142859 10.798486,-17.582191 20.625867,0.5606676" style="opacity:0.98999999;fill:none;fill-opacity:1;fill-rule:evenodd;stroke:#ee9c05;stroke-width:7.4267745;stroke-linecap:round;stroke-miterlimit:4;stroke-dasharray:none;stroke-opacity:1;paint-order:normal"/></g>
	<g transform="scale(1.5) translate(50,85)" width="100px" height="100px"><polygon  points="9.8273811,18.142859 -10.798486,17.582191 -20.625867,-0.5606676 -9.8273811,-18.142859 10.798486,-17.582191 20.625867,0.5606676" style="opacity:0.98999999;fill:none;fill-opacity:1;fill-rule:evenodd;stroke:#ee9c05;stroke-width:7.4267745;stroke-linecap:round;stroke-miterlimit:4;stroke-dasharray:none;stroke-opacity:1;paint-order:normal"/></g>
	<g transform="scale(1.5) translate(-0,100)" width="100px" height="100px"><polygon  points="9.8273811,18.142859 -10.798486,17.582191 -20.625867,-0.5606676 -9.8273811,-18.142859 10.798486,-17.582191 20.625867,0.5606676" style="opacity:0.98999999;fill:none;fill-opacity:1;fill-rule:evenodd;stroke:#ee9c05;stroke-width:7.4267745;stroke-linecap:round;stroke-miterlimit:4;stroke-dasharray:none;stroke-opacity:1;paint-order:normal"/></g>
	<g transform="scale(1.5) translate(100,0)" width="100px" height="100px"><polygon  points="9.8273811,18.142859 -10.798486,17.582191 -20.625867,-0.5606676 -9.8273811,-18.142859 10.798486,-17.582191 20.625867,0.5606676" style="opacity:0.98999999;fill:none;fill-opacity:1;fill-rule:evenodd;stroke:#ee9c05;stroke-width:7.4267745;stroke-linecap:round;stroke-miterlimit:4;stroke-dasharray:none;stroke-opacity:1;paint-order:normal"/></g>
</g>
<g style="opacity:0.75;transform: translate(100%,100%) rotate(180deg);">
	<g transform="scale(2)" width="100px" height="100px"><polygon  points="9.8273811,18.142859 -10.798486,17.582191 -20.625867,-0.5606676 -9.8273811,-18.142859 10.798486,-17.582191 20.625867,0.5606676" style="opacity:0.98999999;fill:none;fill-opacity:1;fill-rule:evenodd;stroke:#ee9c05;stroke-width:7.4267745;stroke-linecap:round;stroke-miterlimit:4;stroke-dasharray:none;stroke-opacity:1;paint-order:normal"/></g>
	<g transform="scale(2) translate(32,16)" width="100px" height="100px"><polygon  points="9.8273811,18.142859 -10.798486,17.582191 -20.625867,-0.5606676 -9.8273811,-18.142859 10.798486,-17.582191 20.625867,0.5606676" style="opacity:0.98999999;fill:none;fill-opacity:1;fill-rule:evenodd;stroke:#ee9c05;stroke-width:7.4267745;stroke-linecap:round;stroke-miterlimit:4;stroke-dasharray:none;stroke-opacity:1;paint-order:normal"/></g>
	<g transform="scale(2) translate(0,35)" width="100px" height="100px"><polygon  points="9.8273811,18.142859 -10.798486,17.582191 -20.625867,-0.5606676 -9.8273811,-18.142859 10.798486,-17.582191 20.625867,0.5606676" style="opacity:0.98999999;fill:none;fill-opacity:1;fill-rule:evenodd;stroke:#ee9c05;stroke-width:7.4267745;stroke-linecap:round;stroke-miterlimit:4;stroke-dasharray:none;stroke-opacity:1;paint-order:normal"/></g>
	<g transform="scale(1.5) translate(50,85)" width="100px" height="100px"><polygon  points="9.8273811,18.142859 -10.798486,17.582191 -20.625867,-0.5606676 -9.8273811,-18.142859 10.798486,-17.582191 20.625867,0.5606676" style="opacity:0.98999999;fill:none;fill-opacity:1;fill-rule:evenodd;stroke:#ee9c05;stroke-width:7.4267745;stroke-linecap:round;stroke-miterlimit:4;stroke-dasharray:none;stroke-opacity:1;paint-order:normal"/></g>
	<g transform="scale(1.5) translate(-0,100)" width="100px" height="100px"><polygon  points="9.8273811,18.142859 -10.798486,17.582191 -20.625867,-0.5606676 -9.8273811,-18.142859 10.798486,-17.582191 20.625867,0.5606676" style="opacity:0.98999999;fill:none;fill-opacity:1;fill-rule:evenodd;stroke:#ee9c05;stroke-width:7.4267745;stroke-linecap:round;stroke-miterlimit:4;stroke-dasharray:none;stroke-opacity:1;paint-order:normal"/></g>
	<g transform="scale(1.5) translate(100,0)" width="100px" height="100px"><polygon  points="9.8273811,18.142859 -10.798486,17.582191 -20.625867,-0.5606676 -9.8273811,-18.142859 10.798486,-17.582191 20.625867,0.5606676" style="opacity:0.98999999;fill:none;fill-opacity:1;fill-rule:evenodd;stroke:#ee9c05;stroke-width:7.4267745;stroke-linecap:round;stroke-miterlimit:4;stroke-dasharray:none;stroke-opacity:1;paint-order:normal"/></g>
</g>
</svg>
